<?xml version="1.0" encoding="UTF-8"?>
<svg width="880px" height="226px" viewBox="0 0 880 226" version="1.1" xmlns="http://www.w3.org/2000/svg" xmlns:xlink="http://www.w3.org/1999/xlink">
    <title>ParisJS-FullLength-Transparent</title>
    <g id="ParisJS-FullLength-Transparent" stroke="none" stroke-width="1" fill="none" fill-rule="evenodd">
        <path d="M213.28,170 L213.28,129.68 L230.24,129.68 C239.413333,129.68 247.093333,128.026667 253.28,124.72 C259.466667,121.413333 264.053333,117.066667 267.04,111.68 C270.026667,106.293333 271.52,100.346667 271.52,93.84 C271.52,86.8 269.973333,80.56 266.88,75.12 C263.786667,69.68 259.146667,65.4133333 252.96,62.32 C246.773333,59.2266667 239.2,57.68 230.24,57.68 L230.24,57.68 L185.92,57.68 L185.92,170 L213.28,170 Z M228.16,107.92 L213.28,107.92 L213.28,79.76 L228.16,79.76 C233.386667,79.76 237.28,80.9866667 239.84,83.44 C242.4,85.8933333 243.68,89.36 243.68,93.84 C243.68,98.32 242.4,101.786667 239.84,104.24 C237.28,106.693333 233.386667,107.92 228.16,107.92 L228.16,107.92 Z M319.52,171.28 C325.813333,171.28 331.333333,170 336.08,167.44 C340.826667,164.88 344.533333,161.52 347.2,157.36 L347.2,157.36 L347.2,170 L374.56,170 L374.56,80.72 L347.2,80.72 L347.2,93.36 C344.64,89.2 340.986667,85.84 336.24,83.28 C331.493333,80.72 325.973333,79.44 319.68,79.44 C312.32,79.44 305.653333,81.3066667 299.68,85.04 C293.706667,88.7733333 288.986667,94.1066667 285.52,101.04 C282.053333,107.973333 280.32,116.026667 280.32,125.2 C280.32,134.373333 282.053333,142.453333 285.52,149.44 C288.986667,156.426667 293.706667,161.813333 299.68,165.6 C305.653333,169.386667 312.266667,171.28 319.52,171.28 Z M327.68,147.44 C322.24,147.44 317.626667,145.44 313.84,141.44 C310.053333,137.44 308.16,132.026667 308.16,125.2 C308.16,118.373333 310.053333,113.013333 313.84,109.12 C317.626667,105.226667 322.24,103.28 327.68,103.28 C333.12,103.28 337.733333,105.253333 341.52,109.2 C345.306667,113.146667 347.2,118.533333 347.2,125.36 C347.2,132.186667 345.306667,137.573333 341.52,141.52 C337.733333,145.466667 333.12,147.44 327.68,147.44 Z M421.76,170 L421.76,128.56 C421.76,121.2 423.466667,116.053333 426.88,113.12 C430.293333,110.186667 435.413333,108.72 442.24,108.72 L442.24,108.72 L449.76,108.72 L449.76,79.76 C443.893333,79.76 438.56,81.1733333 433.76,84 C428.96,86.8266667 424.96,90.6933333 421.76,95.6 L421.76,95.6 L421.76,80.72 L394.4,80.72 L394.4,170 L421.76,170 Z M476.64,71.44 C481.333333,71.44 485.2,70.0266667 488.24,67.2 C491.28,64.3733333 492.8,60.88 492.8,56.72 C492.8,52.4533333 491.28,48.9066667 488.24,46.08 C485.2,43.2533333 481.333333,41.84 476.64,41.84 C471.84,41.84 467.92,43.2533333 464.88,46.08 C461.84,48.9066667 460.32,52.4533333 460.32,56.72 C460.32,60.88 461.84,64.3733333 464.88,67.2 C467.92,70.0266667 471.84,71.44 476.64,71.44 Z M490.24,170 L490.24,80.72 L462.88,80.72 L462.88,170 L490.24,170 Z M546.4,171.28 C553.653333,171.28 560.026667,170.106667 565.52,167.76 C571.013333,165.413333 575.226667,162.186667 578.16,158.08 C581.093333,153.973333 582.56,149.306667 582.56,144.08 C582.453333,137.893333 580.826667,132.96 577.68,129.28 C574.533333,125.6 570.88,122.933333 566.72,121.28 C562.56,119.626667 557.173333,117.946667 550.56,116.24 C544.8,114.96 540.56,113.68 537.84,112.4 C535.12,111.12 533.76,109.2 533.76,106.64 C533.76,104.506667 534.613333,102.826667 536.32,101.6 C538.026667,100.373333 540.48,99.76 543.68,99.76 C547.413333,99.76 550.426667,100.666667 552.72,102.48 C555.013333,104.293333 556.373333,106.746667 556.8,109.84 L556.8,109.84 L582.08,109.84 C581.12,100.666667 577.413333,93.3066667 570.96,87.76 C564.506667,82.2133333 555.68,79.44 544.48,79.44 C536.906667,79.44 530.373333,80.6666667 524.88,83.12 C519.386667,85.5733333 515.226667,88.9066667 512.4,93.12 C509.573333,97.3333333 508.16,102 508.16,107.12 C508.16,113.2 509.706667,118.026667 512.8,121.6 C515.893333,125.173333 519.573333,127.786667 523.84,129.44 C528.106667,131.093333 533.44,132.666667 539.84,134.16 C545.813333,135.653333 550.133333,137.013333 552.8,138.24 C555.466667,139.466667 556.8,141.36 556.8,143.92 C556.8,146.053333 555.866667,147.786667 554,149.12 C552.133333,150.453333 549.493333,151.12 546.08,151.12 C542.346667,151.12 539.2,150.16 536.64,148.24 C534.08,146.32 532.64,143.813333 532.32,140.72 L532.32,140.72 L505.28,140.72 C505.706667,146.48 507.68,151.68 511.2,156.32 C514.72,160.96 519.52,164.613333 525.6,167.28 C531.68,169.946667 538.613333,171.28 546.4,171.28 Z M612.16,171.28 C616.853333,171.28 620.72,169.866667 623.76,167.04 C626.8,164.213333 628.32,160.72 628.32,156.56 C628.32,152.293333 626.8,148.72 623.76,145.84 C620.72,142.96 616.853333,141.52 612.16,141.52 C607.36,141.52 603.44,142.96 600.4,145.84 C597.36,148.72 595.84,152.293333 595.84,156.56 C595.84,160.72 597.36,164.213333 600.4,167.04 C603.44,169.866667 607.36,171.28 612.16,171.28 Z M677.92,171.12 C689.226667,171.12 698.213333,167.92 704.88,161.52 C711.546667,155.12 714.88,146 714.88,134.16 L714.88,134.16 L714.88,57.68 L687.52,57.68 L687.52,134.16 C687.52,138.213333 686.613333,141.306667 684.8,143.44 C682.986667,145.573333 680.426667,146.64 677.12,146.64 C673.493333,146.64 670.72,145.44 668.8,143.04 C666.88,140.64 665.92,137.093333 665.92,132.4 L665.92,132.4 L638.72,132.4 C638.72,144.773333 642.293333,154.32 649.44,161.04 C656.586667,167.76 666.08,171.12 677.92,171.12 Z M777.6,171.12 C786.026667,171.12 793.333333,169.573333 799.52,166.48 C805.706667,163.386667 810.426667,159.226667 813.68,154 C816.933333,148.773333 818.56,142.96 818.56,136.56 C818.56,129.84 816.906667,124.346667 813.6,120.08 C810.293333,115.813333 806.373333,112.56 801.84,110.32 C797.306667,108.08 791.413333,105.733333 784.16,103.28 C776.906667,100.933333 771.573333,98.7466667 768.16,96.72 C764.746667,94.6933333 763.04,91.8666667 763.04,88.24 C763.04,84.9333333 764.053333,82.4 766.08,80.64 C768.106667,78.88 770.773333,78 774.08,78 C777.92,78 781.066667,79.04 783.52,81.12 C785.973333,83.2 787.306667,86.0533333 787.52,89.68 L787.52,89.68 L817.12,89.68 C816.586667,79.12 812.533333,70.88 804.96,64.96 C797.386667,59.04 787.413333,56.08 775.04,56.08 C762.88,56.08 753.013333,59.04 745.44,64.96 C737.866667,70.88 734.08,79.0666667 734.08,89.52 C734.08,96.56 735.733333,102.266667 739.04,106.64 C742.346667,111.013333 746.293333,114.32 750.88,116.56 C755.466667,118.8 761.386667,121.04 768.64,123.28 C773.653333,124.773333 777.52,126.106667 780.24,127.28 C782.96,128.453333 785.253333,129.946667 787.12,131.76 C788.986667,133.573333 789.92,135.866667 789.92,138.64 C789.92,141.946667 788.746667,144.533333 786.4,146.4 C784.053333,148.266667 780.853333,149.2 776.8,149.2 C772.853333,149.2 769.653333,148.106667 767.2,145.92 C764.746667,143.733333 763.306667,140.56 762.88,136.4 L762.88,136.4 L733.76,136.4 C733.973333,143.76 736.026667,150.053333 739.92,155.28 C743.813333,160.506667 749.013333,164.453333 755.52,167.12 C762.026667,169.786667 769.386667,171.12 777.6,171.12 Z" id="Paris.JS" fill="#E14680" fill-rule="nonzero"></path>
        <path d="M115.669944,12.9556334 C111.639319,46.6270525 100.101738,80.8098818 81.6602332,122.552625 L80.085375,126.098334 C79.0245311,128.474348 77.9418282,130.874987 76.8373742,133.301512 L75.1643933,136.96087 C74.6013042,138.187233 74.0327908,139.420224 73.4588666,140.660002 L71.720875,144.399853 C71.4285088,145.026608 71.1347933,145.655098 70.8397301,146.285344 L69.0531927,150.088046 L69.0531927,150.088046 L67.2343926,153.93383 L67.2343926,153.93383 L65.3834106,157.823641 L65.3834106,157.823641 L63.5003275,161.758425 L63.5003275,161.758425 L61.5852244,165.739127 L61.5852244,165.739127 L59.6381819,169.766692 L59.6381819,169.766692 L57.6592811,173.842065 L57.6592811,173.842065 L55.6486028,177.966193 L55.6486028,177.966193 L54.69,179.709 L68.196,179.709 L68.4406038,178.837255 C77.2771192,147.742633 95.3607084,141.371297 122.142315,141.030082 L123,141.024637 C100.694079,145.551081 85.7021578,160.407813 78.024237,185.594833 L76.7911622,190.709578 L35.8982738,190.709578 L40.5337891,182.504267 C73.1274439,128.492424 98.1728289,71.9762125 115.669944,12.9556334 Z M133.874119,79 L151.798552,128 L93.6698725,128 L111.594305,79 L133.874119,79 Z M127.915231,86 L117.553193,86 L106.892884,121 L138.57554,121 L127.915231,86 Z M123,12.4526613 L132.570517,71 L113.429483,71 L123,12.4526613 Z M123,13 L119,64 L127,64 L123,13 Z" id="Shape" fill="#000000" fill-rule="nonzero" opacity="0.49718657"></path>
    </g>
</svg>